<svg width="30" height="33" viewBox="0 0 30 33" fill="none" xmlns="http://www.w3.org/2000/svg">
<path fill-rule="evenodd" clip-rule="evenodd" d="M15.3159 17.9747L16.6797 15.0501L9.86999 11.8747L13.0454 5.065L10.1208 3.70124L5.58164 13.4355L15.3159 17.9747Z" fill="#F5F5F5"/>
<path fill-rule="evenodd" clip-rule="evenodd" d="M25.4637 25.7147C24.5862 25.5599 24.0002 24.7231 24.155 23.8455C24.45 22.172 24.2994 20.4503 23.7182 18.8534C23.137 17.2566 22.1457 15.8409 20.8439 14.7486C19.5422 13.6562 17.9758 12.9258 16.3023 12.6308C14.6288 12.3357 12.9071 12.4863 11.3102 13.0675C10.4729 13.3723 9.54698 12.9405 9.24221 12.1032C8.93743 11.2658 9.36918 10.34 10.2065 10.0352C12.3357 9.26024 14.6313 9.0594 16.8626 9.45285C19.094 9.8463 21.1825 10.8202 22.9182 12.2766C24.6538 13.733 25.9756 15.6206 26.7505 17.7498C27.5255 19.8789 27.7263 22.1745 27.3329 24.4059C27.1781 25.2834 26.3413 25.8694 25.4637 25.7147Z" fill="#F5F5F5"/>
<path d="M12.5722 32.9004C11.045 32.9004 9.793 32.536 8.81613 31.8072C7.83927 31.0785 7.2339 30.0556 7 28.7387H10.1576C10.2677 29.3269 10.5428 29.7935 10.9831 30.1387C11.4234 30.4712 11.9256 30.6374 12.4897 30.6374C13.1363 30.6374 13.6523 30.4328 14.0375 30.0237C14.4365 29.6018 14.636 28.9689 14.636 28.125C14.636 27.3196 14.4503 26.7059 14.0788 26.284C13.7073 25.8492 13.1982 25.6319 12.5516 25.6319C12.1801 25.6319 11.8293 25.715 11.4991 25.8812C11.1689 26.0346 10.8937 26.2903 10.6735 26.6483H7.78424L8.54784 18.9004H17.0919V21.1634H9.66229L11.3546 20.9524L10.9831 25.2675L9.95122 25.1333C10.3089 24.6091 10.7423 24.2127 11.2514 23.9442C11.7742 23.6629 12.4346 23.5223 13.2326 23.5223C14.182 23.5223 15.0144 23.7141 15.7298 24.0977C16.4453 24.4812 17.0025 25.0182 17.4015 25.7086C17.8005 26.399 18 27.2173 18 28.1634C18 29.1607 17.773 30.0109 17.3189 30.7141C16.8649 31.4173 16.232 31.9607 15.4203 32.3442C14.6085 32.715 13.6592 32.9004 12.5722 32.9004Z" fill="#F5F5F5"/>
<path d="M3.23077 32.9004V21.4671L3.54462 21.7587C3.36 22.1606 3.09538 22.5365 2.75077 22.8865C2.40615 23.2235 2 23.5152 1.53231 23.7615C1.07692 23.9948 0.566154 24.1698 0 24.2865V21.3698C0.455385 21.305 0.929231 21.1495 1.42154 20.9032C1.91385 20.6439 2.35692 20.3393 2.75077 19.9893C3.15692 19.6263 3.44615 19.2634 3.61846 18.9004H6V32.9004H3.23077Z" fill="#F5F5F5"/>
</svg>
