<svg width="30" height="33" viewBox="0 0 30 33" fill="none" xmlns="http://www.w3.org/2000/svg">
<path fill-rule="evenodd" clip-rule="evenodd" d="M13.918 17.9747L12.5542 15.0501L19.3639 11.8747L16.1885 5.065L19.1131 3.70124L23.6522 13.4355L13.918 17.9747Z" fill="#F5F5F5"/>
<path fill-rule="evenodd" clip-rule="evenodd" d="M3.77016 25.7147C4.64771 25.5599 5.23367 24.7231 5.07893 23.8455C4.78385 22.172 4.93448 20.4503 5.51568 18.8534C6.09689 17.2566 7.0882 15.8409 8.38996 14.7486C9.69173 13.6562 11.2581 12.9258 12.9316 12.6308C14.6051 12.3357 16.3268 12.4863 17.9237 13.0675C18.761 13.3723 19.6869 12.9405 19.9917 12.1032C20.2965 11.2658 19.8647 10.34 19.0274 10.0352C16.8982 9.26024 14.6026 9.0594 12.3713 9.45285C10.1399 9.8463 8.05142 10.8202 6.31573 12.2766C4.58004 13.733 3.2583 15.6206 2.48336 17.7498C1.70842 19.8789 1.50758 22.1745 1.90103 24.4059C2.05576 25.2834 2.8926 25.8694 3.77016 25.7147Z" fill="#F5F5F5"/>
<path d="M24.1199 32.9004C22.7315 32.9004 21.5933 32.536 20.7052 31.8072C19.8172 31.0785 19.2668 30.0556 19.0542 28.7387H21.9247C22.0248 29.3269 22.275 29.7935 22.6752 30.1387C23.0755 30.4712 23.532 30.6374 24.0448 30.6374C24.6327 30.6374 25.1017 30.4328 25.4519 30.0237C25.8147 29.6018 25.996 28.9689 25.996 28.125C25.996 27.3196 25.8272 26.7059 25.4895 26.284C25.1518 25.8492 24.689 25.6319 24.1011 25.6319C23.7634 25.6319 23.4444 25.715 23.1443 25.8812C22.8441 26.0346 22.5939 26.2903 22.3938 26.6483H19.7671L20.4613 18.9004H28.2287V21.1634H21.4745L23.0129 20.9524L22.6752 25.2675L21.7371 25.1333C22.0623 24.6091 22.4563 24.2127 22.9191 23.9442C23.3944 23.6629 23.9948 23.5223 24.7202 23.5223C25.5833 23.5223 26.34 23.7141 26.9904 24.0977C27.6408 24.4812 28.1474 25.0182 28.5101 25.7086C28.8728 26.399 29.0542 27.2173 29.0542 28.1634C29.0542 29.1607 28.8478 30.0109 28.4351 30.7141C28.0223 31.4173 27.4469 31.9607 26.709 32.3442C25.971 32.715 25.108 32.9004 24.1199 32.9004Z" fill="#F5F5F5"/>
<path d="M14.285 32.9004V21.4671L14.5988 21.7587C14.4142 22.1606 14.1496 22.5365 13.805 22.8865C13.4604 23.2235 13.0542 23.5152 12.5865 23.7615C12.1311 23.9948 11.6204 24.1698 11.0542 24.2865V21.3698C11.5096 21.305 11.9834 21.1495 12.4757 20.9032C12.968 20.6439 13.4111 20.3393 13.805 19.9893C14.2111 19.6263 14.5004 19.2634 14.6727 18.9004H17.0542V32.9004H14.285Z" fill="#F5F5F5"/>
</svg>
